<svg version="1.1" xmlns="http://www.w3.org/2000/svg" xmlns:xlink="http://www.w3.org/1999/xlink" width="344.17918" height="344.31754" viewBox="0,0,344.17918,344.31754"><defs><linearGradient x1="153.87425" y1="93.87425" x2="326.12576" y2="266.12576" gradientUnits="userSpaceOnUse" id="color-1"><stop offset="0" stop-color="#9966ff"/><stop offset="1" stop-color="#668aff"/></linearGradient></defs><g transform="translate(-67.97027,-7.89829)"><g data-paper-data="{&quot;isPaintingLayer&quot;:true}" fill-rule="nonzero" stroke-linecap="butt" stroke-linejoin="miter" stroke-miterlimit="10" stroke-dasharray="" stroke-dashoffset="0" style="mix-blend-mode: normal"><path d="M80.0018,339.79636c-13.16747,-13.26938 -12.00536,-36.1073 -12.00536,-36.1073l0.00893,-247.53392c0,0 -1.21259,-22.66027 12.12982,-35.93222c13.34241,-13.27195 36.34788,-12.28949 36.34788,-12.28949l247.44793,0.00148c0,0 22.97481,-1.32448 36.28155,11.96024c13.30674,13.28471 11.89355,36.13513 11.89355,36.13513l-0.02669,248.05936c0,0 1.23574,22.32492 -12.01479,35.65554c-13.25054,13.33062 -35.81073,12.45901 -35.81073,12.45901l-248.35864,-0.24565c0,0 -22.72596,1.10721 -35.89343,-12.16217z" fill="url(#color-1)" stroke="none" stroke-width="none"/><path d="M253.63934,180.05706c-0.00778,-8.33351 -3.37577,-12.78063 -7.42838,-15.99692c-7.54093,-5.98473 -18.00271,-6.05668 -17.47441,-7.34358c9.19198,-22.39107 31.21267,-38.1595 56.91627,-38.1595c33.96551,0 61.5,27.53449 61.5,61.5c0,33.96551 -27.53449,61.5 -61.5,61.5c-26.15231,0 -48.49198,-16.32378 -57.38588,-39.33816c-1.00297,-2.59535 11.46825,-0.58235 19.21711,-8.67278c2.81,-2.93386 5.77548,-7.19636 6.1553,-13.48906z" fill="#ffffff" stroke="#000000" stroke-width="0"/><path d="M132.96691,180.05706c0,-10.50945 8.51959,-19.02905 19.02905,-19.02905c10.50945,0 19.02905,8.51959 19.02905,19.02905c0,10.50945 -8.51959,19.02905 -19.02905,19.02905c-10.50945,0 -19.02905,-8.51959 -19.02905,-19.02905z" fill="#ffffff" stroke="none" stroke-width="0"/></g></g></svg>