<svg version="1.1" xmlns="http://www.w3.org/2000/svg" xmlns:xlink="http://www.w3.org/1999/xlink" width="339.13377" height="339.13377" viewBox="0,0,339.13377,339.13377"><defs><linearGradient x1="148.19377" y1="37.55581" x2="331.92599" y2="322.55835" gradientUnits="userSpaceOnUse" id="color-1"><stop offset="0" stop-color="#9966ff"/><stop offset="1" stop-color="#668aff"/></linearGradient></defs><g transform="translate(-70.493,-10.49019)"><g data-paper-data="{&quot;isPaintingLayer&quot;:true}" fill-rule="nonzero" stroke-width="0" stroke-linecap="butt" stroke-linejoin="miter" stroke-miterlimit="10" stroke-dasharray="" stroke-dashoffset="0" style="mix-blend-mode: normal"><path d="M148.19377,37.55581c78.70128,-50.73625 183.63113,-28.06612 234.36738,50.63515c50.73625,78.70128 28.06612,183.63113 -50.63515,234.36738c-78.70128,50.73625 -183.63113,28.06612 -234.36738,-50.63515c-50.73625,-78.70128 -28.06612,-183.63113 50.63515,-234.36738z" fill="url(#color-1)" stroke="none"/><path d="M253.63934,180.05706c-0.00778,-8.33351 -3.37577,-12.78063 -7.42838,-15.99692c-7.54093,-5.98473 -18.00271,-6.05668 -17.47441,-7.34358c9.19198,-22.39107 31.21267,-38.1595 56.91627,-38.1595c33.96551,0 61.5,27.53449 61.5,61.5c0,33.96551 -27.53449,61.5 -61.5,61.5c-26.15231,0 -48.49198,-16.32378 -57.38588,-39.33816c-1.00297,-2.59535 11.46825,-0.58235 19.21711,-8.67278c2.81,-2.93386 5.77548,-7.19636 6.1553,-13.48906z" fill="#ffffff" stroke="#000000"/><path d="M132.96691,180.05706c0,-10.50945 8.51959,-19.02905 19.02905,-19.02905c10.50945,0 19.02905,8.51959 19.02905,19.02905c0,10.50945 -8.51959,19.02905 -19.02905,19.02905c-10.50945,0 -19.02905,-8.51959 -19.02905,-19.02905z" fill="#ffffff" stroke="none"/></g></g></svg>